<?xml version="1.0" encoding="UTF-8"?>
<!DOCTYPE svg PUBLIC "-//W3C//DTD SVG 1.1//EN" "http://www.w3.org/Graphics/SVG/1.1/DTD/svg11.dtd">
<!-- Creator: CorelDRAW 2019 (64-Bit) -->
<svg xmlns="http://www.w3.org/2000/svg" xml:space="preserve" width="290.82mm" height="62.2627mm" version="1.1" style="shape-rendering:geometricPrecision; text-rendering:geometricPrecision; image-rendering:optimizeQuality; fill-rule:evenodd; clip-rule:evenodd"
viewBox="0 0 20852.65 4464.42"
 xmlns:xlink="http://www.w3.org/1999/xlink"
 xmlns:xodm="http://www.corel.com/coreldraw/odm/2003">
 <defs>
  <style type="text/css">
   <![CDATA[
    .fil1 {fill:#0C757D}
    .fil0 {fill:#18A1AB;fill-rule:nonzero}
   ]]>
  </style>
 </defs>
 <g id="Layer_x0020_1">
  <metadata id="CorelCorpID_0Corel-Layer"/>
  <path class="fil0" d="M5154.27 2468.43l565.28 0 -212.41 -688.24c-6.32,-20.9 -15.55,-54.44 -26.73,-101.1 -11.67,-46.66 -26.25,-106.44 -44.23,-179.35 -12.15,51.04 -24.3,100.13 -36.45,146.79 -11.67,46.17 -23.81,90.89 -35.97,133.66l-209.49 688.24zm-796.63 778.65l719.84 -2085.14 712.06 0 720.32 2085.14 -565.27 0 -105.48 -373.29 -807.33 0 -108.39 373.29 -565.77 0zm2351.02 0l0 -2085.14 434.53 0c323.7,0 552.64,15.06 686.79,45.69 134.63,30.13 252.26,81.17 353.84,152.13 132.21,92.35 232.33,210.46 300.38,353.84 68.53,143.87 102.56,308.16 102.56,492.37 0,184.21 -34.02,348.01 -102.56,491.88 -68.05,143.87 -168.17,261.98 -300.38,354.33 -100.61,69.99 -215.32,120.05 -344.6,150.19 -128.81,29.65 -329.06,44.71 -600.28,44.71l-95.75 0 -434.53 0zm562.84 -466.61l95.26 0c223.1,0 386.41,-45.69 488.96,-137.55 102.56,-91.38 153.6,-236.71 153.6,-436.48 0,-199.28 -51.04,-345.09 -153.6,-438.41 -102.56,-92.83 -265.87,-139.49 -488.96,-139.49l-95.26 0 0 1151.93zm2172.15 -312.04l565.28 0 -212.41 -688.24c-6.32,-20.9 -15.55,-54.44 -26.73,-101.1 -11.67,-46.66 -26.25,-106.44 -44.23,-179.35 -12.15,51.04 -24.3,100.13 -36.45,146.79 -11.67,46.17 -23.81,90.89 -35.97,133.66l-209.49 688.24zm-796.63 778.65l719.84 -2085.14 712.06 0 720.32 2085.14 -565.27 0 -105.48 -373.29 -807.33 0 -108.39 373.29 -565.77 0zm3263.82 0l0 -2085.14 562.84 0 0 947.3 659.08 -947.3 662 0 -769.9 1016.81 836.97 1068.33 -709.14 0 -679.01 -935.65 0 935.65 -562.84 0zm2114.79 0l0 -2085.14 1277.33 0 0 457.85 -723.24 0 0 361.62 681.92 0 0 446.19 -681.92 0 0 352.87 723.24 0 0 466.61 -1277.33 0zm1653.05 0l0 -2085.14 594.92 0c232.33,0 394.67,10.69 486.05,32.08 91.38,21.38 170.6,57.35 237.19,107.41 74.85,56.87 132.69,129.78 173.03,217.75 40.34,88.46 60.27,185.67 60.27,292.11 0,161.37 -39.86,292.61 -119.08,393.7 -79.71,101.1 -195.39,168.17 -347.52,201.23l568.68 840.86 -641.58 0 -478.27 -816.56 0 816.56 -533.68 0zm533.68 -1099.44l104.99 0c122.48,0 211.92,-20.89 268.3,-62.7 56.38,-41.8 84.57,-107.42 84.57,-196.37 0,-104.5 -26.25,-178.86 -78.74,-223.1 -52.97,-44.23 -140.95,-66.1 -265.38,-66.1l-113.74 0 0 548.26zm1747.34 -985.7l565.76 0 0 1353.65c0,146.78 -9.72,260.03 -28.67,338.78 -18.96,78.74 -50.06,148.24 -93.81,209 -57.84,78.74 -128.8,138.52 -213.37,178.86 -84.57,40.34 -179.35,60.27 -284.34,60.27 -131.24,0 -247.88,-28.19 -349.95,-84.09 -102.56,-55.9 -190.54,-138.52 -263.44,-248.37l347.04 -314.96c8.75,61.73 28.67,109.36 59.79,142.42 31.59,33.54 70.96,50.06 118.59,50.06 53.96,0 91.38,-30.14 111.79,-89.92 20.41,-59.79 30.62,-209.49 30.62,-448.62l0 -1147.07zm1537.37 1306.49l565.28 0 -212.41 -688.24c-6.32,-20.9 -15.55,-54.44 -26.73,-101.1 -11.67,-46.66 -26.25,-106.44 -44.23,-179.35 -12.15,51.04 -24.3,100.13 -36.45,146.79 -11.67,46.17 -23.81,90.89 -35.97,133.66l-209.49 688.24zm-796.63 778.65l719.84 -2085.14 712.06 0 720.32 2085.14 -565.27 0 -105.48 -373.29 -807.33 0 -108.39 373.29 -565.77 0z"/>
  <path class="fil1" d="M1845.99 0c1019.52,0 1846,826.48 1846,1845.99 0,474.63 -179.12,907.42 -473.46,1234.46l496.54 766.07c120.21,185.46 67.31,433.27 -118.15,553.48 -185.45,120.2 -433.27,67.31 -553.46,-118.15l-476.92 -735.78c0.26,-7.81 -0.05,-15.62 -0.91,-23.36l-210.3 -1827.57 265.82 -821.14c26.93,-83.92 -19.26,-173.79 -103.18,-200.73 -16.2,-5.19 -32.62,-7.66 -48.77,-7.67l0 -0.47 -1246.42 0c-88.41,0 -160.08,71.67 -160.08,160.08 0,21.81 4.37,42.61 12.28,61.56l261.69 808.34 -210.3 1827.57c-0.9,7.86 -1.22,15.65 -0.97,23.33 -661.46,-280.73 -1125.39,-936.22 -1125.39,-1700.06 0,-1019.51 826.48,-1845.99 1845.99,-1845.99zm204.12 1839.71l190.32 1653.84 -143.94 181.58 -250.5 316.07 -250.5 -316.07 -143.93 -181.58 190.32 -1653.86 408.23 0.02zm199.53 -854.39l-172.95 534.22 -461.4 -0.02 -172.93 -534.2 807.28 0z"/>
 </g>
</svg>
